<?xml version="1.0" encoding="UTF-8"?>
<svg width="9px" height="12px" viewBox="0 0 9 12" version="1.1" xmlns="http://www.w3.org/2000/svg" xmlns:xlink="http://www.w3.org/1999/xlink">
    <title>CFE5AF17-A763-4EC7-A283-E6F853D0A209</title>
    <g id="Page-1" stroke="none" stroke-width="1" fill="none" fill-rule="evenodd">
        <g id="vi-go-Branza-Restauracyjna" transform="translate(-1140.000000, -51.000000)" fill="#FFFFFF" fill-rule="nonzero">
            <g id="Menu" transform="translate(250.000000, 30.000000)">
                <g id="Group-4" transform="translate(882.000000, 15.000000)">
                    <g id="bag" transform="translate(8.000000, 6.000000)">
                        <path d="M4.5,0 C3.13113086,0 2.02144316,1.0745166 2.02144316,2.4 L2.02144316,2.8 L1.67857613,2.8 C0.956085863,2.79926359 0.360904031,3.34914478 0.327762658,4.048 L0.00141934095,10.628 C-0.0154854371,10.985545 0.119198519,11.3342567 0.37425547,11.593314 C0.629312422,11.8523714 0.982598617,11.9992833 1.35223282,12 L7.64776718,12 C8.01740138,11.9992833 8.37068758,11.8523714 8.62574453,11.593314 C8.88080148,11.3342567 9.01548544,10.985545 8.99858066,10.628 L8.67223734,4.048 C8.63909597,3.34914478 8.04391414,2.79926359 7.32142387,2.8 L6.97855684,2.8 L6.97855684,2.4 C6.97855684,1.0745166 5.86886914,0 4.5,0 L4.5,0 Z M2.84762878,2.4 C2.84762878,1.5163444 3.58742057,0.8 4.5,0.8 C5.41257943,0.8 6.15237122,1.5163444 6.15237122,2.4 L6.15237122,2.8 L2.84762878,2.8 L2.84762878,2.4 Z M2.17015657,4.476 C2.17015657,4.2550861 2.35510452,4.076 2.58324938,4.076 C2.81139424,4.076 2.99634219,4.2550861 2.99634219,4.476 C2.99634219,4.6969139 2.81139424,4.876 2.58324938,4.876 C2.35510452,4.876 2.17015657,4.6969139 2.17015657,4.476 Z M6.00365781,4.476 C6.00365781,4.2550861 6.18860576,4.076 6.41675062,4.076 C6.64489548,4.076 6.82984343,4.2550861 6.82984343,4.476 C6.82984343,4.6969139 6.64489548,4.876 6.41675062,4.876 C6.18860576,4.876 6.00365781,4.6969139 6.00365781,4.476 Z"></path>
                    </g>
                </g>
            </g>
        </g>
    </g>
</svg>