<?xml version="1.0" encoding="UTF-8"?>
<svg width="48px" height="48px" viewBox="0 0 48 48" version="1.1" xmlns="http://www.w3.org/2000/svg" xmlns:xlink="http://www.w3.org/1999/xlink">
    <title>8C619F64-9C5F-4974-B52C-5FB73FEF552F</title>
    <g id="Page-1" stroke="none" stroke-width="1" fill="none" fill-rule="evenodd">
        <g id="vi-go-Branza-Restauracyjna" transform="translate(-396.000000, -607.000000)" fill="#FAB10F" fill-rule="nonzero">
            <g id="USP" transform="translate(250.000000, 557.000000)">
                <g id="Group-2">
                    <g id="bio" transform="translate(146.000000, 50.000000)">
                        <path d="M6.75086511,19.6363636 L13.1651928,19.6363636 C16.3718491,19.6363636 18.9898648,17.034616 19.0862952,13.7999732 C19.0877716,13.7694376 19.0909091,13.7392732 19.0909091,13.7083663 C19.0909091,13.6928664 19.089894,13.677645 19.0897095,13.6621452 C19.0898018,13.6465525 19.0909091,13.6313311 19.0909091,13.6157384 C19.0909091,13.5845531 19.0877716,13.5541103 19.0862952,13.523389 C19.0264991,11.5352313 18.009966,9.78653242 16.4862737,8.73597657 C16.7022962,8.39284511 16.8843604,8.02372588 17.0251765,7.63149608 C17.247843,7.01122356 17.3608834,6.36004414 17.3608834,5.69642771 C17.3607911,2.55552653 14.8201043,0 11.697144,0 L6.75086511,0 C5.73359376,0 4.90909091,0.829381312 4.90909091,1.85246437 L4.90909091,17.7838065 C4.90909091,18.8069823 5.73359376,19.6363636 6.75086511,19.6363636 Z M8.5926393,3.70492874 L11.697144,3.70492874 C12.7889759,3.70492874 13.6771505,4.59835136 13.6771505,5.69652053 C13.6771505,5.92994644 13.6379324,6.15761792 13.5605112,6.37313084 C13.2781409,7.15963232 12.5293059,7.6880195 11.697144,7.6880195 C11.646668,7.6880195 11.5970225,7.69163922 11.5475616,7.6956302 L8.5926393,7.6956302 L8.5926393,3.70492874 Z M30.0374276,26.8327219 C35.8503353,20.963934 45.7774028,21.2635164 46.1969567,21.2797971 C47.2232934,21.3180376 48.0272431,22.1842239 47.9984603,23.2207888 C47.998179,23.2318634 47.9977103,23.242938 47.9972415,23.2540126 C48.0228366,24.6175152 47.9846783,33.8681305 42.4927879,39.4124417 C41.3652895,40.5507606 40.1728188,41.4126873 38.9486589,41.974085 C38.6977704,42.0891853 38.4345999,42.1437065 38.175836,42.1437065 C37.4643288,42.1437065 36.784417,41.7320527 36.4709939,41.0354879 C36.0435645,40.0855321 36.459837,38.9655763 37.4007628,38.534045 C38.2147443,38.1607264 39.0375388,37.5573966 39.8463637,36.7408095 C43.1724184,33.3829299 43.9962441,27.9602501 44.1947236,25.114737 C41.3765401,25.3154999 36.0085939,26.1477997 32.6836643,29.5046381 C31.1591132,31.0437254 30.4228547,32.5517659 30.4326989,34.1146116 C30.4354178,34.5408423 30.4959836,34.9472901 30.5899262,35.3290329 C32.3468961,33.6384979 34.4407279,31.7838314 36.9245809,29.806019 C37.7360309,29.1599052 38.912657,29.2999944 39.5527228,30.1193265 C40.1927887,30.9386586 40.0538436,32.1265765 39.2423936,32.7726903 C28.9193984,40.9927986 25.7343514,46.9259518 25.7034122,46.9849217 C25.3703942,47.6310355 24.7199216,48 24.0457289,48 C24.0011953,48 23.9564741,47.9978229 23.9118467,47.9946047 C23.2534986,47.9793652 22.6233708,47.6139977 22.2960719,46.9842592 C22.2673829,46.9300219 21.1364155,44.834459 18.0861882,41.4346472 C15.9463681,42.6923946 13.1328354,42.7846594 12.7702046,42.7912231 L12.7314615,42.7917134 C10.158635,42.7917134 7.72794121,41.6548143 5.50697749,39.412631 C-0.04744755,33.8049011 -0.0229774782,24.4052991 0.00364896013,23.2103767 C-0.0194147857,22.1786392 0.780128404,21.3181323 1.80299616,21.2799864 C2.22264383,21.2636111 12.1495238,20.9640286 17.9625253,26.8328166 C20.1997087,29.0916591 21.3258007,31.5497501 21.3094874,34.138654 C21.298893,35.8365721 20.7853966,37.2628308 20.311746,38.2860494 C21.9666166,40.0796635 23.1656501,41.5897865 23.9999764,42.7393692 C24.8343028,41.5896918 26.0333363,40.0796635 27.6881132,38.2860494 C27.2146501,37.2628308 26.7011536,35.8364774 26.6904655,34.1384646 C26.6741522,31.5495607 27.8002442,29.0914698 30.0374276,26.8327219 Z M3.8050418,25.114737 C4.00333377,27.9588303 4.8267845,33.382078 8.1534017,36.7406202 C9.66801476,38.2697688 11.1655644,39.0130931 12.7314615,39.0132824 C13.3426508,39.0132824 14.4218653,38.8603202 15.328008,38.5558156 C13.5576311,36.8164387 11.3902953,34.8691998 8.75746558,32.7726903 C7.94610925,32.1265765 7.80707049,30.9384693 8.44713631,30.1193265 C9.08720214,29.3001837 10.263922,29.1598106 11.0752783,29.806019 C13.5591312,31.7839261 15.6529631,33.6384979 17.409933,35.3290329 C17.5039693,34.9473847 17.5644413,34.5407476 17.5672576,34.114517 C17.5770045,32.5516713 16.840746,31.0437254 15.3161949,29.5044488 C11.9919215,26.1482729 6.62463161,25.3156892 3.8050418,25.114737 Z M24.2727273,0 C25.3270842,0 26.1818182,0.848417561 26.1818182,1.89498278 L26.1818182,1.89498278 L26.1818182,18.2868354 C26.1818182,19.3334006 25.3270842,20.1818182 24.2727273,20.1818182 C23.2182747,20.1818182 22.3635407,19.3334006 22.3636364,18.2867405 L22.3636364,18.2867405 L22.3636364,1.89498278 C22.3636364,0.848417561 23.2183704,0 24.2727273,0 Z M36.8181818,0 C40.5777515,0 43.6363636,2.9916571 43.6363636,6.66892742 L43.6363636,6.66892742 L43.6363636,12.9674362 C43.6363636,16.6447065 40.5777515,19.6363636 36.8181818,19.6363636 C33.0586121,19.6363636 30,16.6447065 30,12.9673434 L30,12.9673434 L30,6.66892742 C30,2.9916571 33.0586121,0 36.8181818,0 Z M13.150336,11.4006518 C14.3586226,11.4006518 15.3810615,12.4317168 15.4060688,13.662238 C15.3810615,14.8970286 14.3654512,15.9313421 13.1651928,15.9313421 L8.5926393,15.9313421 L8.5926393,11.4006518 L13.150336,11.4006518 Z M36.8182767,3.70492874 C35.1473463,3.70492874 33.787942,5.03457474 33.787942,6.66892742 L33.787942,6.66892742 L33.787942,12.9673434 C33.787942,14.6016961 35.1473463,15.9313421 36.8182767,15.9313421 C38.4892071,15.9313421 39.8486114,14.6016961 39.8486114,12.9673434 L39.8486114,12.9673434 L39.8486114,6.66892742 C39.8486114,5.03457474 38.4892071,3.70492874 36.8182767,3.70492874 Z"></path>
                    </g>
                </g>
            </g>
        </g>
    </g>
</svg>