<?xml version="1.0" encoding="UTF-8"?>
<svg width="52px" height="45px" viewBox="0 0 52 45" version="1.1" xmlns="http://www.w3.org/2000/svg" xmlns:xlink="http://www.w3.org/1999/xlink">
    <title>51205618-9FB9-4B27-A24B-C92F4A25F1AB</title>
    <g id="Page-1" stroke="none" stroke-width="1" fill="none" fill-rule="evenodd">
        <g id="vi-go-Branza-Restauracyjna" transform="translate(-754.000000, -607.000000)" fill="#FAB10F" fill-rule="nonzero">
            <g id="USP" transform="translate(250.000000, 557.000000)">
                <g id="Group-2-Copy" transform="translate(360.000000, 0.000000)">
                    <g id="chef" transform="translate(144.000000, 50.000000)">
                        <path d="M51.82259,10.234391 C51.2237771,6.11217647 49.1863302,3.05513495 46.0854216,1.62650865 L46.0855231,1.62650865 C42.4146453,-0.0650242215 37.9030325,0.891273356 33.9109123,4.09562284 C31.7338169,1.46675779 28.9418616,0 26,0 C23.0581384,0 20.2661831,1.46675779 18.0890877,4.09562284 C14.097069,0.891474048 9.58535467,-0.0650242215 5.91457843,1.62650865 C2.81366981,3.05513495 0.776222947,6.11217647 0.17740999,10.234391 C-0.37620762,14.0450311 0.375761704,18.3827889 2.29468504,22.4488097 C4.10341298,26.2814256 5.92473469,29.1031557 7.71944699,30.8565017 L7.71944699,42.3460208 C7.71944699,43.4544429 8.62883831,44.3529412 9.75059698,44.3529412 L42.249403,44.3529412 C43.3712633,44.3529412 44.280553,43.4544429 44.280553,42.3460208 L44.280553,30.8565017 C46.0752653,29.1031557 47.896587,26.2814256 49.705315,22.4488097 C51.6242383,18.3827889 52.3762076,14.0450311 51.82259,10.234391 Z M46.0236715,20.7525606 C43.7817792,25.5031419 42.0301294,27.5462872 40.9555973,28.4237128 C40.4887142,28.8050277 40.2183546,29.3722837 40.2183546,29.9707474 L40.2183546,40.3391003 L11.7818485,40.3391003 L11.7818485,29.9707474 C11.7818485,29.3722837 11.5114889,28.8050277 11.0446058,28.4237128 C9.96997215,27.5462872 8.21842394,25.5031419 5.9765316,20.7525606 C2.88212299,14.1960519 3.63998294,7.10329412 7.6314938,5.2642526 C10.7599259,3.82258131 14.5672022,6.06571626 16.9684462,8.52178547 C17.4101419,8.97354325 18.0412517,9.19490657 18.6714475,9.12004844 C19.302659,9.04519031 19.8618625,8.68274048 20.1826987,8.14047059 C21.734778,5.51792734 23.8550999,4.01384083 26,4.01384083 C28.1449001,4.01384083 30.265222,5.51792734 31.8173013,8.14047059 C32.1381375,8.68264014 32.6974426,9.04519031 33.3285525,9.12004844 C33.9593576,9.19500692 34.5897566,8.97354325 35.0315538,8.52178547 C37.43229,6.06621799 41.2394647,3.82248097 44.3685062,5.2642526 C44.3686078,5.2642526 44.3686078,5.2642526 44.3686078,5.2642526 C48.3600171,7.10329412 49.117877,14.1960519 46.0236715,20.7525606 Z M31.5714434,28.2941176 L21.1932625,28.2941176 C20.0469465,28.2941176 19.1176471,29.1500147 19.1176471,30.2058824 C19.1176471,31.26175 20.0469465,32.1176471 21.1932625,32.1176471 L31.5714434,32.1176471 C32.7177593,32.1176471 33.6470588,31.26175 33.6470588,30.2058824 C33.6470588,29.1500147 32.7178631,28.2941176 31.5714434,28.2941176 Z"></path>
                    </g>
                </g>
            </g>
        </g>
    </g>
</svg>