<?xml version="1.0" encoding="UTF-8"?>
<svg width="14px" height="14px" viewBox="0 0 14 14" version="1.1" xmlns="http://www.w3.org/2000/svg" xmlns:xlink="http://www.w3.org/1999/xlink">
    <title>0778F2D1-615D-4400-A704-870153D5AAF6</title>
    <g id="Page-1" stroke="none" stroke-width="1" fill="none" fill-rule="evenodd">
        <g id="vi-go-Branza-Restauracyjna" transform="translate(-996.000000, -6154.000000)" fill="#FFFFFF" fill-rule="nonzero">
            <g id="Footer" transform="translate(0.000000, 5630.000000)">
                <g id="instagram" transform="translate(996.000000, 524.000000)">
                    <path d="M7,4.15625 C5.41679687,4.15625 4.12890625,5.44414062 4.12890625,7.02734375 C4.12890625,8.61054687 5.41679687,9.8984375 7,9.8984375 C8.58320312,9.8984375 9.87109375,8.61054687 9.87109375,7.02734375 C9.87109375,5.44414063 8.58320312,4.15625 7,4.15625 Z M7,4.15625 C5.41679687,4.15625 4.12890625,5.44414062 4.12890625,7.02734375 C4.12890625,8.61054687 5.41679687,9.8984375 7,9.8984375 C8.58320312,9.8984375 9.87109375,8.61054687 9.87109375,7.02734375 C9.87109375,5.44414063 8.58320312,4.15625 7,4.15625 Z M11.9492188,0 L2.05078125,0 C0.91875,0 0,0.91875 0,2.05078125 L0,11.9492188 C0,13.08125 0.91875,14 2.05078125,14 L11.9492188,14 C13.08125,14 14,13.08125 14,11.9492188 L14,2.05078125 C14,0.91875 13.08125,0 11.9492188,0 Z M7,10.71875 C4.96565234,10.71875 3.30859375,9.06169141 3.30859375,7.02734375 C3.30859375,4.99294141 4.96565234,3.3359375 7,3.3359375 C9.03434766,3.3359375 10.6914062,4.99294141 10.6914062,7.02734375 C10.6914062,9.06169141 9.03434766,10.71875 7,10.71875 Z M11.5117188,3.3359375 C11.0605469,3.3359375 10.6914062,2.96679688 10.6914062,2.515625 C10.6914062,2.06445312 11.0605469,1.6953125 11.5117188,1.6953125 C11.9628906,1.6953125 12.3320312,2.06445312 12.3320312,2.515625 C12.3320312,2.96679688 11.9628906,3.3359375 11.5117188,3.3359375 Z M7,4.15625 C5.41679687,4.15625 4.12890625,5.44414062 4.12890625,7.02734375 C4.12890625,8.61054687 5.41679687,9.8984375 7,9.8984375 C8.58320312,9.8984375 9.87109375,8.61054687 9.87109375,7.02734375 C9.87109375,5.44414063 8.58320312,4.15625 7,4.15625 Z M7,4.15625 C5.41679687,4.15625 4.12890625,5.44414062 4.12890625,7.02734375 C4.12890625,8.61054687 5.41679687,9.8984375 7,9.8984375 C8.58320312,9.8984375 9.87109375,8.61054687 9.87109375,7.02734375 C9.87109375,5.44414063 8.58320312,4.15625 7,4.15625 Z M7,4.15625 C5.41679687,4.15625 4.12890625,5.44414062 4.12890625,7.02734375 C4.12890625,8.61054687 5.41679687,9.8984375 7,9.8984375 C8.58320312,9.8984375 9.87109375,8.61054687 9.87109375,7.02734375 C9.87109375,5.44414063 8.58320312,4.15625 7,4.15625 Z" id="insta"></path>
                </g>
            </g>
        </g>
    </g>
</svg>