<?xml version="1.0" encoding="UTF-8"?>
<svg width="12px" height="12px" viewBox="0 0 12 12" version="1.1" xmlns="http://www.w3.org/2000/svg" xmlns:xlink="http://www.w3.org/1999/xlink">
    <title>00D36071-C2EE-49AD-9D8F-9B30BEE611F4</title>
    <g id="Page-1" stroke="none" stroke-width="1" fill="none" fill-rule="evenodd">
        <g id="vi-go-Branza-Restauracyjna" transform="translate(-1408.000000, -51.000000)" fill="#FFFFFF" fill-rule="nonzero">
            <g id="Menu" transform="translate(250.000000, 30.000000)">
                <g id="Group-3" transform="translate(1151.000000, 15.000000)">
                    <g id="like" transform="translate(7.000000, 6.000000)">
                        <path d="M1.95885937,3.6856875 C2.17427344,3.6856875 2.35064063,3.86114062 2.35064063,4.07744531 L2.35064063,4.07744531 L2.35064063,11.1293437 C2.35064063,11.3455312 2.17507031,11.5210547 1.95885937,11.5210547 L1.95885937,11.5210547 L0.39178125,11.5210547 C0.175570312,11.5210547 0,11.3455547 0,11.1293437 L0,11.1293437 L0,4.07744531 C0,3.86114062 0.17634375,3.6856875 0.39178125,3.6856875 L0.39178125,3.6856875 Z M6.82117969,0.03965625 C7.1109375,-0.03328125 7.47032812,0.0357421875 7.72755469,0.173179687 C8.5175625,0.595242187 8.70189844,1.78242187 8.41717969,2.5599375 L8.41717969,2.5599375 L8.00453906,3.6856875 C8.00453906,3.6856875 10.9587656,3.675 11.0218594,3.6856875 C12.0661641,3.8623125 12.3649687,5.2790625 11.4712031,5.85147656 C11.7745781,6.38800781 11.5974375,7.08679687 11.0794219,7.41855469 C11.3827969,7.95508594 11.2056328,8.653875 10.6876406,8.98563281 C11.1221953,9.75417187 10.5447891,10.7380781 9.66372656,10.7375627 L9.66372656,10.7375627 L3.13420312,10.7375627 L3.13420312,4.46920312 C3.13420312,4.46920312 5.02371094,2.75779687 5.63196094,2.16457031 C5.98082812,1.82432812 6.20610937,1.37102344 6.29650781,0.894257812 C6.33215625,0.706289062 6.32182031,0.50840625 6.42192187,0.338882812 C6.50896875,0.191484375 6.65500781,0.08146875 6.82117969,0.03965625 Z"></path>
                    </g>
                </g>
            </g>
        </g>
    </g>
</svg>