<?xml version="1.0" encoding="UTF-8"?>
<svg width="19px" height="14px" viewBox="0 0 19 14" version="1.1" xmlns="http://www.w3.org/2000/svg" xmlns:xlink="http://www.w3.org/1999/xlink">
    <title>C5EB296E-975A-4ABF-A9CD-CFF9A2519FCD</title>
    <g id="Page-1" stroke="none" stroke-width="1" fill="none" fill-rule="evenodd">
        <g id="vi-go-Branza-Restauracyjna" transform="translate(-893.000000, -5376.000000)" fill="#F8485E" fill-rule="nonzero">
            <g id="Kontakt" transform="translate(30.000000, 4817.000000)">
                <g id="Group-10" transform="translate(220.000000, 372.000000)">
                    <g id="Group-9" transform="translate(50.000000, 50.000000)">
                        <g id="Group-18" transform="translate(593.000000, 131.000000)">
                            <g id="close-envelope-kopia" transform="translate(0.000000, 6.000000)">
                                <path d="M11.8071429,7.46428571 L18.5928571,13.1642857 C18.3214286,13.4357143 18.05,13.5714286 17.6428571,13.5714286 L17.6428571,13.5714286 L1.35714286,13.5714286 C0.95,13.5714286 0.678571429,13.4357143 0.407142857,13.1642857 L0.407142857,13.1642857 L7.19285714,7.46428571 L9.5,9.5 L11.8071429,7.46428571 Z M0,1.22142857 L6.51428571,6.92142857 L0,12.4857143 L0,1.22142857 Z M19,1.22142857 L19,12.4857143 L12.4857143,6.92142857 L19,1.22142857 Z M17.6428571,-9.09494702e-13 C18.05,-9.09494702e-13 18.3214286,0.135714286 18.5928571,0.407142857 L18.5928571,0.407142857 L9.5,8.14285714 L0.407142857,0.407142857 C0.678571429,0.135714286 0.95,-9.09494702e-13 1.35714286,-9.09494702e-13 L1.35714286,-9.09494702e-13 Z" id="mail"></path>
                            </g>
                        </g>
                    </g>
                </g>
            </g>
        </g>
    </g>
</svg>