<?xml version="1.0" encoding="UTF-8"?>
<svg width="20px" height="26px" viewBox="0 0 20 26" version="1.1" xmlns="http://www.w3.org/2000/svg" xmlns:xlink="http://www.w3.org/1999/xlink">
    <title>2D918B86-53BD-49C6-BCDB-B7AC585BE626</title>
    <g id="Page-1" stroke="none" stroke-width="1" fill="none" fill-rule="evenodd">
        <g id="vi-go-Branza-Restauracyjna" transform="translate(-300.000000, -5359.000000)" fill="#F8485E" fill-rule="nonzero">
            <g id="Kontakt" transform="translate(30.000000, 4817.000000)">
                <g id="Group-10" transform="translate(220.000000, 372.000000)">
                    <g id="Group-9" transform="translate(50.000000, 50.000000)">
                        <g id="Group-20" transform="translate(0.500000, 114.000000)">
                            <g id="003-maps-and-flags-kopia" transform="translate(9.500000, 19.000000) scale(-1, 1) translate(-9.500000, -19.000000) translate(0.000000, 6.000000)">
                                <path d="M9.5,0 C4.26167171,0 0,4.22409109 0,9.41617554 C0,15.8597146 8.50156935,25.3192066 8.8635312,25.718754 C9.20351405,26.0940787 9.79710075,26.0934185 10.1364688,25.718754 C10.4984306,25.3192066 19,15.8597146 19,9.41617554 C19,4.22409109 14.7382771,0 9.5,0 Z M9.5,14.1537165 C6.86446688,14.1537165 4.72036165,12.0284678 4.72036165,9.41617554 C4.72036165,6.80388329 6.86451811,4.67868539 9.5,4.67868539 C12.1354819,4.67868539 14.2795871,6.80393407 14.2795871,9.41622632 C14.2795871,12.0285186 12.1354819,14.1537165 9.5,14.1537165 Z" id="map"></path>
                            </g>
                        </g>
                    </g>
                </g>
            </g>
        </g>
    </g>
</svg>