<?xml version="1.0" encoding="UTF-8"?>
<svg width="19px" height="19px" viewBox="0 0 19 19" version="1.1" xmlns="http://www.w3.org/2000/svg" xmlns:xlink="http://www.w3.org/1999/xlink">
    <title>2AE4392C-519C-41DC-9A02-83145E4FD307</title>
    <g id="Page-1" stroke="none" stroke-width="1" fill="none" fill-rule="evenodd">
        <g id="vi-go-Branza-Restauracyjna" transform="translate(-601.000000, -5372.000000)" fill="#F8485E" fill-rule="nonzero">
            <g id="Kontakt" transform="translate(30.000000, 4817.000000)">
                <g id="Group-10" transform="translate(220.000000, 372.000000)">
                    <g id="Group-9" transform="translate(50.000000, 50.000000)">
                        <g id="Group-19" transform="translate(301.000000, 131.000000)">
                            <path d="M18.5740547,17.0280844 L15.639801,14.086854 C15.0553521,13.5034333 14.0874933,13.5211591 13.4826838,14.1275578 L12.0043942,15.6088687 C11.9109981,15.5572777 11.8143269,15.503389 11.7126883,15.4462177 C10.7791639,14.9277917 9.50147671,14.2172264 8.15697663,12.8686952 C6.80849181,11.517319 6.09887787,10.2347673 5.5800409,9.29852585 C5.52529146,9.19933776 5.47283461,9.10370578 5.4210328,9.01288823 L6.41318226,8.01996788 L6.90095996,7.53048315 C7.50669734,6.92320915 7.52340056,5.95343086 6.94031624,5.36831415 L4.0060626,2.42675548 C3.42297828,1.84245941 2.45468277,1.86018524 1.84894539,2.46745925 L1.02197223,3.30106591 L1.0445707,3.32355146 C0.767275408,3.6781776 0.535559164,4.08718484 0.363122976,4.52825178 C0.204169454,4.94809148 0.105205602,5.3487282 0.0599540668,5.75018555 C-0.327495144,8.9695037 1.140314,11.9117189 5.12375914,15.9042446 C10.6300904,21.4226693 15.0674701,21.0057839 15.2589021,20.985432 C15.6758276,20.9354823 16.0753948,20.8356377 16.4814578,20.6775823 C16.9177066,20.5067797 17.3255162,20.2748667 17.6791223,19.9975449 L17.6971902,20.0136294 L18.5349713,19.1914023 C19.1394532,18.5842377 19.1568661,17.6141312 18.5740547,17.0280844 Z" id="phone"></path>
                        </g>
                    </g>
                </g>
            </g>
        </g>
    </g>
</svg>