<?xml version="1.0" encoding="UTF-8"?>
<svg width="18px" height="18px" viewBox="0 0 18 18" version="1.1" xmlns="http://www.w3.org/2000/svg" xmlns:xlink="http://www.w3.org/1999/xlink">
    <title>0A4CFFFA-FCBB-40FA-9943-916AD1A78A76</title>
    <g id="Page-1" stroke="none" stroke-width="1" fill="none" fill-rule="evenodd">
        <g id="vi-go-Branza-Restauracyjna" transform="translate(-412.000000, -3708.000000)" fill="#F8485E" fill-rule="nonzero">
            <g id="Opinii" transform="translate(30.000000, 3363.000000)">
                <g id="1" transform="translate(340.000000, 212.000000)">
                    <g id="98868" transform="translate(42.000000, 133.000000)">
                        <path d="M4.17706212,8.30430988 L4.17706212,9.82375126 L7.79696276,9.82375126 L7.79696276,18 L0,18 L0,9.82375126 L0.000188453062,9.82375126 L0.000188453062,8.30430988 C0.000188453062,5.21888638 0.846719608,2.92781739 2.51641374,1.49434298 C3.67144256,0.502758518 5.13346141,0 6.8619529,0 L6.8619529,4.37996739 C5.9236451,4.37996739 4.17706212,4.37996739 4.17706212,8.30430988 Z M17.0650844,4.37996739 L17.0650844,0 C15.3366871,0 13.8746682,0.502758518 12.7196394,1.49434298 C11.0499453,2.92781739 10.2033199,5.21898519 10.2033199,8.30430988 L10.2033199,9.82375126 L10.2033199,9.82375126 L10.2033199,18 L18,18 L18,9.82375126 L14.3800994,9.82375126 L14.3800994,8.30430988 C14.3801936,4.37996739 16.1267766,4.37996739 17.0650844,4.37996739 Z" id="quote"></path>
                    </g>
                </g>
            </g>
        </g>
    </g>
</svg>