<?xml version="1.0" encoding="UTF-8"?>
<svg width="48px" height="47px" viewBox="0 0 48 47" version="1.1" xmlns="http://www.w3.org/2000/svg" xmlns:xlink="http://www.w3.org/1999/xlink">
    <title>A284F48F-2FA7-4CE8-8628-73D239FA36E3</title>
    <g id="Page-1" stroke="none" stroke-width="1" fill="none" fill-rule="evenodd">
        <g id="vi-go-Branza-Restauracyjna" transform="translate(-1476.000000, -608.000000)" fill="#FAB10F" fill-rule="nonzero">
            <g id="USP" transform="translate(250.000000, 557.000000)">
                <g id="Group-2-Copy-3" transform="translate(1080.000000, 0.000000)">
                    <g id="sending" transform="translate(146.000000, 51.000000)">
                        <path d="M42.2633057,26.5745862 L41.1899414,21.0415302 C40.895874,19.488639 40.3883057,18.3026397 39.6390381,17.4163862 C38.6726074,16.2737907 37.3172607,15.6698473 35.71875,15.6698473 L31.3125,15.6698473 L31.3125,8.06268374 C31.3125,7.01357321 30.4731445,6.16330416 29.4375,6.16330416 C28.4018555,6.16330416 27.5625,7.01357321 27.5625,8.06268374 L27.5625,26.4963109 L9.375,26.4963109 C8.33935547,26.4963109 7.5,27.3465801 7.5,28.3956905 C7.5,29.444801 8.33935547,30.2950701 9.375,30.2950701 L41.0625,30.2950701 C42.8356933,30.5005889 44.25,31.9585111 44.25,33.8089223 L44.25,38.7473093 L40.1773682,38.7473093 C39.4035645,36.5366837 37.319458,34.9485501 34.875,34.9485501 C32.430542,34.9485501 30.3464355,36.5366837 29.5726318,38.7473093 L17.9586182,38.7473093 C17.1848145,36.5366837 15.100708,34.9485501 12.65625,34.9485501 C10.2132568,34.9485501 8.130249,36.5348288 7.35498047,38.7435996 C5.35437009,38.6660662 3.75,36.9940928 3.75,34.9485501 L3.75,15.6602021 C3.75,14.6110915 2.91064453,13.7608225 1.875,13.7608225 C0.839355469,13.7608225 0,14.6110915 0,15.6602021 L0,34.9485501 C0,39.0878621 3.28491206,42.4622287 7.35241697,42.5423587 C8.12548828,44.7548391 10.2106933,46.3448276 12.65625,46.3448276 C15.100708,46.3448276 17.1848145,44.756694 17.9586182,42.5460684 L29.5726318,42.5460684 C30.3464355,44.756694 32.430542,46.3448276 34.875,46.3448276 C37.319458,46.3448276 39.4035645,44.756694 40.1773682,42.5460684 L46.125,42.5460684 C47.1606445,42.5460684 48,41.6957993 48,40.6466888 L48,33.8089223 C48,30.2724408 45.5405273,27.306515 42.2633057,26.5745862 Z M31.3125,19.4686065 L35.71875,19.4686065 C36.2911377,19.4686065 37.0748291,19.4686065 37.5076904,21.760846 C37.5080567,21.7638138 37.5087891,21.7667816 37.5095214,21.7701203 L38.4265136,26.4963109 L31.3125,26.4963109 L31.3125,19.4686065 Z M12.65625,42.5460684 C11.6224365,42.5460684 10.78125,41.6939444 10.78125,40.6466888 C10.78125,39.5994332 11.6224365,38.7473093 12.65625,38.7473093 C13.6900635,38.7473093 14.53125,39.5994332 14.53125,40.6466888 C14.53125,41.6939444 13.6900635,42.5460684 12.65625,42.5460684 Z M34.875,42.5460684 C33.8411865,42.5460684 33,41.6939444 33,40.6466888 C33,39.5994332 33.8411865,38.7473093 34.875,38.7473093 C35.9088135,38.7473093 36.75,39.5994332 36.75,40.6466888 C36.75,41.6939444 35.9088135,42.5460684 34.875,42.5460684 Z M0.0842285625,8.07232898 C0.0842285625,7.02321854 0.923583937,6.1729494 1.95922856,6.1729494 L17.2686768,6.1729494 L14.3408203,3.25302424 C13.6029052,2.51701465 13.5933838,1.31432161 14.3199463,0.566811848 C15.0465088,-0.180697914 16.2337646,-0.189972204 16.9716797,0.545666435 L21.2039795,4.76659234 C22.1000977,5.6606363 22.59375,6.85145822 22.59375,8.11944252 C22.59375,9.38779769 22.1000977,10.5782487 21.2039795,11.4722926 L17.0661621,15.5989915 C16.7010498,15.9632866 16.225708,16.1446922 15.7507324,16.1446922 C15.2662354,16.1446922 14.7817383,15.9554962 14.4147949,15.5778461 C13.6882324,14.8303364 13.6973877,13.6276433 14.4353027,12.8920047 L17.3631592,9.97170857 L1.95922856,9.97170857 C0.923950219,9.97170857 0.0842285625,9.12143942 0.0842285625,8.07232898 Z"></path>
                    </g>
                </g>
            </g>
        </g>
    </g>
</svg>