<?xml version="1.0" encoding="UTF-8"?>
<svg width="45px" height="45px" viewBox="0 0 45 45" version="1.1" xmlns="http://www.w3.org/2000/svg" xmlns:xlink="http://www.w3.org/1999/xlink">
    <title>F86D2386-4DA7-42C3-A500-AF4BCE37E105</title>
    <g id="Page-1" stroke="none" stroke-width="1" fill="none" fill-rule="evenodd">
        <g id="vi-go-Branza-Restauracyjna" transform="translate(-1118.000000, -607.000000)" fill="#FAB10F" fill-rule="nonzero">
            <g id="USP" transform="translate(250.000000, 557.000000)">
                <g id="Group-2-Copy-2" transform="translate(720.000000, 0.000000)">
                    <g id="shopping-cart" transform="translate(148.000000, 50.000000)">
                        <path d="M44.6061006,10.2290795 C44.2722925,9.81845468 43.7713166,9.58009542 43.2421279,9.58009542 L42.6086131,9.58009542 L33.5434108,0.514885002 C32.8568981,-0.171628334 31.7438527,-0.171628334 31.0574279,0.514885002 L27.2465835,4.32573275 L23.4356513,0.514885002 C22.7491386,-0.171628334 21.6360932,-0.171628334 20.9496684,0.514885002 L11.884466,9.58009542 L11.4025624,9.58009542 L11.2721329,8.381971 L11.2674747,8.34347493 C10.6434521,3.58692452 6.55513745,0 1.75781008,0 C0.786971571,0 0,0.786994245 0,1.75783361 C0,2.72867298 0.786971571,3.51564526 1.75781008,3.51564526 C4.7905598,3.51564526 7.37603475,5.77873985 7.77936428,8.78275206 L9.86896101,27.979813 C8.0419811,28.8092364 6.7675688,30.6495773 6.7675688,32.7832091 C6.7675688,32.7980626 6.7694145,32.8123888 6.76976606,32.8271544 C6.7694145,32.84192 6.7675688,32.8562462 6.7675688,32.8710997 C6.7675688,35.7788717 9.1332296,38.1445346 12.040999,38.1445346 L12.7579219,38.1445346 C12.5789768,38.6689777 12.4804515,39.230247 12.4804515,39.8144557 C12.4804515,42.6738 14.8067374,45 17.6659913,45 C20.5252451,45 22.851531,42.6738 22.851531,39.8144557 C22.851531,39.230247 22.7530057,38.6689777 22.5740607,38.1445346 L30.1602416,38.1445346 C29.9812966,38.6689777 29.8827713,39.230247 29.8827713,39.8144557 C29.8827713,42.6738 32.2090572,45 35.068311,45 C37.9275649,45 40.2538508,42.6738 40.2538508,39.8144557 C40.2538508,36.9551114 37.9275649,34.6289113 35.068311,34.6289113 L12.040999,34.6289113 C11.0717426,34.6289113 10.283189,33.840357 10.283189,32.8710997 C10.283189,32.8562462 10.2813432,32.84192 10.2809917,32.8271544 C10.2813432,32.8123888 10.283189,32.7980626 10.283189,32.7832091 C10.283189,31.8139518 11.0717426,31.0253974 12.040999,31.0253974 L34.4821693,31.0253974 C37.6025458,31.0253974 40.4661942,29.0947929 41.7776084,26.1068647 C42.1677544,25.2179393 41.7634581,24.1809184 40.8745335,23.7907721 C39.9856968,23.4005379 38.9485889,23.8049225 38.5584429,24.6938478 C37.8191959,26.3781829 36.1810927,27.5097742 34.4821693,27.5097742 L13.354171,27.5097742 L11.7852377,13.0957187 L41.0799336,13.0957187 L40.2198371,17.2192811 C40.0216441,18.169642 40.6314284,19.1007548 41.5817005,19.2989481 C41.7028136,19.3242606 41.8234873,19.3363016 41.9424031,19.3363016 C42.757236,19.3363016 43.4883971,18.7663312 43.6614535,17.9370835 L44.963024,11.6968522 C45.0709535,11.1788251 44.9398209,10.6397043 44.6061006,10.2290795 Z M35.068311,38.1445346 C35.9891398,38.1445346 36.7382306,38.893626 36.7382306,39.8144557 C36.7382306,40.7352853 35.9891398,41.4843767 35.068311,41.4843767 C34.1474822,41.4843767 33.3983915,40.7352853 33.3983915,39.8144557 C33.3983915,38.893626 34.1474822,38.1445346 35.068311,38.1445346 Z M17.6659913,38.1445346 C18.5868201,38.1445346 19.3359108,38.8937139 19.3359108,39.8144557 C19.3359108,40.7352853 18.5868201,41.4843767 17.6659913,41.4843767 C16.7451625,41.4843767 15.9960717,40.7352853 15.9960717,39.8144557 C15.9960717,38.893626 16.7451625,38.1445346 17.6659913,38.1445346 Z M21.9922255,9.58009542 L16.856344,9.58009542 L22.1927038,4.24373084 L24.7606006,6.81171787 L21.9922255,9.58009542 Z M26.9641035,9.58009542 L32.3004633,4.24373084 L37.6367352,9.58009542 L26.9641035,9.58009542 Z" id="shop"></path>
                    </g>
                </g>
            </g>
        </g>
    </g>
</svg>