<?xml version="1.0" encoding="UTF-8"?>
<svg width="14px" height="17px" viewBox="0 0 14 17" version="1.1" xmlns="http://www.w3.org/2000/svg" xmlns:xlink="http://www.w3.org/1999/xlink">
    <title>D3757F9A-15FD-489A-A7F2-DD08A4621C3C</title>
    <g id="Page-1" stroke="none" stroke-width="1" fill="none" fill-rule="evenodd">
        <g id="vi-go-Branza-Restauracyjna" transform="translate(-954.000000, -6152.000000)" fill="#FFFFFF" fill-rule="nonzero">
            <g id="Footer" transform="translate(0.000000, 5630.000000)">
                <g id="youtube-logo" transform="translate(954.000000, 522.000000)">
                    <path d="M13.7358491,8.77890625 C13.6533019,8.40703125 13.475,8.09160156 13.1943396,7.83925781 C12.9136792,7.58691406 12.5933962,7.4375 12.2268868,7.39433594 C11.0712264,7.26816406 9.32783019,7.20507812 6.99339623,7.20507812 C4.66226415,7.20507812 2.92216981,7.26816406 1.76981132,7.39433594 C1.4,7.4375 1.07641509,7.58691406 0.799056604,7.83925781 C0.521698113,8.09160156 0.34009434,8.40371094 0.250943396,8.77890625 C0.0891509434,9.51269531 0.00660377358,10.6183594 0.00660377358,12.0958984 C0.00660377358,13.6 0.0891509434,14.7056641 0.250943396,15.4128906 C0.333490566,15.7847656 0.51509434,16.1001953 0.79245283,16.3525391 C1.07311321,16.6048828 1.39339623,16.7509766 1.75990566,16.7875 C2.91556604,16.9203125 4.65896226,16.9867187 6.99339623,16.9867187 C9.3245283,16.9867187 11.0679245,16.9203125 12.2268868,16.7875 C12.5900943,16.7509766 12.9103774,16.6048828 13.1877358,16.3525391 C13.4650943,16.1001953 13.6466981,15.7880859 13.7358491,15.4128906 C13.8976415,14.6791016 13.9801887,13.5734375 13.9801887,12.0958984 C13.9801887,10.5917969 13.8976415,9.48613281 13.7358491,8.77890625 Z M3.99528302,9.73515625 L2.98820755,9.73515625 L2.98820755,15.1273437 L2.04716981,15.1273437 L2.04716981,9.73515625 L1.05660377,9.73515625 L1.05660377,8.8453125 L3.99528302,8.8453125 L3.99528302,9.73515625 L3.99528302,9.73515625 Z M6.54103774,15.1306641 L5.70235849,15.1306641 L5.70235849,14.6193359 C5.36226415,15.0044922 5.04198113,15.1970703 4.74150943,15.1970703 C4.4509434,15.1970703 4.26933962,15.0808594 4.19339623,14.8451172 C4.14386792,14.6923828 4.11745283,14.4632813 4.11745283,14.1544922 L4.11745283,10.4457031 L4.95613208,10.4457031 L4.95613208,13.8955078 C4.95613208,14.0980469 4.95943396,14.2076172 4.96603774,14.2275391 C4.98584906,14.3603516 5.05188679,14.4267578 5.16415094,14.4267578 C5.33254717,14.4267578 5.51415094,14.2939453 5.70235849,14.0283203 L5.70235849,10.4457031 L6.54103774,10.4457031 L6.54103774,15.1306641 L6.54103774,15.1306641 Z M9.74716981,13.7261719 C9.74716981,14.1876953 9.71745283,14.503125 9.66132075,14.6757812 C9.55566038,15.0244141 9.33113208,15.1970703 8.99103774,15.1970703 C8.69056604,15.1970703 8.39669811,15.0244141 8.11273585,14.6757812 L8.11273585,15.1306641 L7.2740566,15.1306641 L7.2740566,8.8453125 L8.11273585,8.8453125 L8.11273585,10.9039062 C8.38349057,10.5619141 8.6740566,10.3925781 8.99103774,10.3925781 C9.33113208,10.3925781 9.55235849,10.5685547 9.66132075,10.9238281 C9.71745283,11.0865234 9.74716981,11.4019531 9.74716981,11.8634766 L9.74716981,13.7261719 Z M11.6820755,10.3859375 C12.104717,10.3859375 12.4382075,10.5486328 12.6825472,10.8707031 C12.8509434,11.103125 12.9367925,11.4716797 12.9367925,11.9697266 L12.9334906,12.9492188 L11.2462264,12.9492188 L11.2462264,13.7726563 C11.2462264,14.2076172 11.3915094,14.4267578 11.6787736,14.4267578 C11.8867925,14.4267578 12.0122642,14.3138672 12.0551887,14.0847656 C12.0683962,14.0216797 12.075,13.8291016 12.075,13.5070313 L12.9334906,13.5070313 L12.9334906,13.6298828 C12.9334906,13.9386719 12.9268868,14.1212891 12.9136792,14.1810547 C12.8938679,14.3503906 12.8278302,14.5230469 12.715566,14.6923828 C12.4877358,15.0277344 12.1509434,15.19375 11.6985849,15.19375 C11.2660377,15.19375 10.9259434,15.0310547 10.6816038,14.7089844 C10.5,14.4765625 10.4075472,14.1080078 10.4075472,13.6099609 L10.4075472,11.9697266 C10.4075472,11.4716797 10.4966981,11.103125 10.6716981,10.8707031 C10.9160377,10.5486328 11.2528302,10.3859375 11.6820755,10.3859375 Z M8.53867925,11.15625 C8.78632075,11.15625 8.90849057,11.36875 8.90518868,11.79375 L8.90518868,11.79375 L8.90518868,13.7925781 C8.90518868,14.2142578 8.78301887,14.4267578 8.53867925,14.4267578 C8.39669811,14.4267578 8.25471698,14.3570313 8.11603774,14.2175781 L8.11603774,14.2175781 L8.11603774,11.3654297 C8.25141509,11.2259766 8.39339623,11.15625 8.53867925,11.15625 Z M11.6688679,11.15625 C11.9528302,11.15625 12.0948113,11.3720703 12.0948113,11.8003906 L12.0948113,11.8003906 L12.0948113,12.2353516 L11.2462264,12.2353516 L11.2462264,11.8003906 C11.2462264,11.3720703 11.3849057,11.15625 11.6688679,11.15625 Z M6.79528302,1.56054688 C7.23113208,1.56054688 7.56462264,1.72324219 7.79575472,2.0453125 C7.97075472,2.27773437 8.05990566,2.64960937 8.05990566,3.15429688 L8.05990566,3.15429688 L8.05990566,4.81445312 C8.05990566,5.32578125 7.97075472,5.70097656 7.79575472,5.93339844 C7.56132075,6.25546875 7.22783019,6.41816406 6.79528302,6.41816406 C6.3759434,6.41816406 6.04575472,6.25546875 5.80471698,5.93339844 C5.62971698,5.69433594 5.54056604,5.31914062 5.54056604,4.81445312 L5.54056604,4.81445312 L5.54056604,3.15429688 C5.54056604,2.64960937 5.62971698,2.27773437 5.80471698,2.0453125 C6.04245283,1.72324219 6.37264151,1.56054688 6.79528302,1.56054688 Z M9.61179245,1.6203125 L9.61206761,5.19630443 C9.6129848,5.34302843 9.61619497,5.42096354 9.62169811,5.43203125 C9.64150943,5.57148438 9.70754717,5.64121094 9.81981132,5.64121094 C9.99150943,5.64121094 10.1698113,5.50507813 10.3580189,5.2328125 L10.3580189,5.2328125 L10.3580189,1.6203125 L11.2165094,1.6203125 L11.2165094,6.35175781 L10.3580189,6.35175781 L10.3580189,5.83046875 C10.0245283,6.22226563 9.7009434,6.41816406 9.38726415,6.41816406 C9.1,6.41816406 8.91509434,6.30195313 8.82924528,6.06621094 C8.77971698,5.91347656 8.75330189,5.67773438 8.75330189,5.35566406 L8.75330189,5.35566406 L8.75330189,1.6203125 L9.61179245,1.6203125 Z M3.26226415,0 L3.92924528,2.49355469 L4.57311321,0 L5.53396226,0 L4.39150943,3.78183594 L4.39150943,6.35175781 L3.4504717,6.35175781 L3.4504717,3.78183594 C3.36132075,3.31367188 3.16981132,2.64628906 2.8759434,1.77304688 C2.64150943,1.12226563 2.43679245,0.53125 2.26179245,0 L2.26179245,0 L3.26226415,0 Z M6.79528302,2.33085938 C6.5245283,2.33085938 6.38915094,2.55 6.38915094,2.98496094 L6.38915094,2.98496094 L6.38915094,4.97714844 C6.38915094,5.41875 6.5245283,5.64121094 6.79528302,5.64121094 C7.06603774,5.64121094 7.20141509,5.41875 7.20141509,4.97714844 L7.20141509,4.97714844 L7.20141509,2.98496094 C7.20141509,2.55 7.06603774,2.33085938 6.79528302,2.33085938 Z"></path>
                </g>
            </g>
        </g>
    </g>
</svg>